<svg width="37" height="40" viewBox="0 0 37 40" fill="none" xmlns="http://www.w3.org/2000/svg">
    <path d="M37 40L32.1409 29.7371C31.3402 28.0774 30.2508 26.8142 28.8727 25.9472C27.7746 25.2832 27.2256 24.6193 27.2256 23.9554C27.2256 23.4206 27.6632 22.6094 28.5385 21.5217C29.7116 20.3597 30.6241 19.4467 31.2759 18.7827C31.9277 18.1188 32.3096 17.713 32.4216 17.5655C33.1104 16.6436 33.6271 15.6941 33.9717 14.7167C34.3164 13.7394 34.47 12.7066 34.4324 11.6183C34.414 10.3641 34.1905 9.16074 33.7622 8.00817C33.3338 6.85551 32.7287 5.80444 31.947 4.85487C31.1654 3.90522 30.2205 3.08002 29.1127 2.3792C28.0048 1.67833 26.7621 1.13438 25.3847 0.747206C24.0441 0.34107 22.3871 0.110643 20.4138 0.0558049C19.8925 0.0186016 19.2875 0 18.5988 0C17.91 0 17.1188 0 16.2251 0H0V40H11.2105V5.725C12.0119 5.35614 12.7852 5.08408 13.5306 4.90878C14.2759 4.73351 14.9745 4.6459 15.6263 4.6459C19.1481 4.6459 21.5891 6.17651 22.9493 9.23777C23.1542 9.80963 23.2986 10.3308 23.3823 10.8011C23.4661 11.2715 23.5079 11.6911 23.5079 12.06C23.5079 13.9409 22.725 15.7389 21.1593 17.4539L19.2307 19.3909C18.8207 19.7964 18.49 20.1606 18.2382 20.4833C17.9865 20.8062 17.7908 21.1059 17.6511 21.3823C17.5113 21.6588 17.4135 21.9355 17.3575 22.2123C17.3015 22.4891 17.2735 22.7933 17.2735 23.125C17.2735 23.9737 17.7847 25.5229 18.807 27.7726L22.347 35.4081C22.7747 36.3854 23.2441 37.1831 23.755 37.801C24.2659 38.4189 24.791 38.8845 25.3301 39.198C25.8134 39.4558 26.4455 39.654 27.2266 39.7924C28.0077 39.9308 28.9568 40 30.0739 40H37V40Z" fill="white"/>
    </svg>